<?xml version="1.0" encoding="UTF-8"?>
<svg id="Calque_2" data-name="Calque 2" xmlns="http://www.w3.org/2000/svg" viewBox="0 0 278.94 242.44">
  <defs>
    <style>
      .cls-1 {
        fill: #9c92c7;
      }

      .cls-2 {
        fill: #fff;
      }

      .cls-3 {
        fill: #5ac3e4;
      }
    </style>
  </defs>
  <g>
    <g>
      <path class="cls-2" d="M193.39,87.26v-11.85h-36.14v-11.85h-12.05v11.85h-12.05v-11.85h-12.05v11.85h-36.14v11.85h-12.05v59.23h36.14v-11.85h12.05v-11.85h36.14v11.85h12.05v11.85h36.14v-59.23h-12.05ZM121.11,110.95h-12.05v11.85h-12.05v-11.85h-12.05v-11.85h12.05v-11.85h12.05v11.85h12.05v11.85ZM193.39,110.95h-12.05v11.85h-12.05v-11.85h-12.05v-11.85h12.05v-11.85h12.05v11.85h12.05v11.85Z"/>
      <rect class="cls-2" x="169.3" y="99.1" width="12.05" height="11.85"/>
    </g>
    <rect class="cls-2" x="157.25" y="51.72" width="12.05" height="11.85"/>
    <rect class="cls-2" x="109.06" y="51.72" width="12.05" height="11.85"/>
  </g>
  <g>
    <path class="cls-1" d="M38.33,192.28v-4.57h4.6v4.57h-4.6ZM38.33,196.88v-4.6h4.6v4.6h-4.6ZM38.33,201.45v-4.57h4.6v4.57h-4.6ZM38.33,206.05v-4.6h4.6v4.6h-4.6ZM42.92,187.71v-4.6h4.57v4.6h-4.57ZM42.92,192.28v-4.57h4.57v4.57h-4.57ZM42.92,206.05v-4.6h4.57v4.6h-4.57ZM42.92,210.53v-4.48h4.57v4.48h-4.57ZM47.5,183.11v-4.6h4.6v4.6h-4.6ZM47.5,187.71v-4.6h4.6v4.6h-4.6ZM47.5,206.05v-4.6h4.6v4.6h-4.6ZM47.5,210.53v-4.48h4.6v4.48h-4.6ZM52.09,178.51v-4.48h4.48v4.48h-4.48ZM52.09,183.11v-4.6h4.48v4.6h-4.48ZM52.09,196.88v-4.6h4.48v4.6h-4.48ZM52.09,206.05v-4.6h4.48v4.6h-4.48ZM52.09,210.53v-4.48h4.48v4.48h-4.48ZM56.58,174.03v-4.6h4.6v4.6h-4.6ZM56.58,178.51v-4.48h4.6v4.48h-4.6ZM56.58,192.28v-4.57h4.6v4.57h-4.6ZM56.58,196.88v-4.6h4.6v4.6h-4.6ZM56.58,206.05v-4.6h4.6v4.6h-4.6ZM56.58,210.53v-4.48h4.6v4.48h-4.6ZM61.17,174.03v-4.6h4.6v4.6h-4.6ZM61.17,210.53v-4.48h4.6v4.48h-4.6ZM65.77,210.53v4.53h-4.6v-4.53h4.6ZM65.77,174.03v-4.6h4.57v4.6h-4.57ZM65.77,210.53v-4.48h4.57v4.48h-4.57ZM70.34,210.53v4.53h-4.57v-4.53h4.57ZM70.34,174.03v-4.6h4.6v4.6h-4.6ZM70.34,178.51v-4.48h4.6v4.48h-4.6ZM70.34,183.11v-4.6h4.6v4.6h-4.6ZM70.34,187.71v-4.6h4.6v4.6h-4.6ZM70.34,192.28v-4.57h4.6v4.57h-4.6ZM70.34,196.88v-4.6h4.6v4.6h-4.6ZM70.34,206.05v-4.6h4.6v4.6h-4.6ZM70.34,210.53v-4.48h4.6v4.48h-4.6ZM74.94,210.53v4.53h-4.6v-4.53h4.6ZM74.94,178.51v-4.48h4.57v4.48h-4.57ZM74.94,183.11v-4.6h4.57v4.6h-4.57ZM74.94,187.71v-4.6h4.57v4.6h-4.57ZM74.94,192.28v-4.57h4.57v4.57h-4.57ZM74.94,196.88v-4.6h4.57v4.6h-4.57ZM74.94,201.45v-4.57h4.57v4.57h-4.57ZM74.94,206.05v-4.6h4.57v4.6h-4.57ZM74.94,210.53v-4.48h4.57v4.48h-4.57ZM79.51,210.53v4.53h-4.57v-4.53h4.57ZM79.51,201.45v-4.57h4.51v4.57h-4.51ZM79.51,206.05v-4.6h4.51v4.6h-4.51ZM79.51,210.53v-4.48h4.51v4.48h-4.51Z"/>
    <path class="cls-1" d="M79.51,178.51v-4.48h4.6v4.48h-4.6ZM79.51,183.11v-4.6h4.6v4.6h-4.6ZM79.51,187.71v-4.6h4.6v4.6h-4.6ZM79.51,192.28v-4.57h4.6v4.57h-4.6ZM79.51,201.45v-4.57h4.6v4.57h-4.6ZM79.51,206.05v-4.6h4.6v4.6h-4.6ZM79.51,210.53v-4.48h4.6v4.48h-4.6ZM84.11,174.03v-4.6h4.57v4.6h-4.57ZM84.11,178.51v-4.48h4.57v4.48h-4.57ZM84.11,192.28v-4.57h4.57v4.57h-4.57ZM84.11,196.88v-4.6h4.57v4.6h-4.57ZM84.11,201.45v-4.57h4.57v4.57h-4.57ZM84.11,210.53v-4.48h4.57v4.48h-4.57ZM88.68,210.53v4.53h-4.57v-4.53h4.57ZM88.68,174.03v-4.6h4.6v4.6h-4.6ZM88.68,192.28v-4.57h4.6v4.57h-4.6ZM88.68,196.88v-4.6h4.6v4.6h-4.6ZM88.68,210.53v-4.48h4.6v4.48h-4.6ZM93.28,210.53v4.53h-4.6v-4.53h4.6ZM93.28,174.03v-4.6h4.48v4.6h-4.48ZM93.28,183.11v-4.6h4.48v4.6h-4.48ZM93.28,187.71v-4.6h4.48v4.6h-4.48ZM93.28,192.28v-4.57h4.48v4.57h-4.48ZM93.28,210.53v-4.48h4.48v4.48h-4.48ZM97.76,210.53v4.53h-4.48v-4.53h4.48ZM97.76,174.03v-4.6h4.6v4.6h-4.6ZM97.76,183.11v-4.6h4.6v4.6h-4.6ZM97.76,187.71v-4.6h4.6v4.6h-4.6ZM97.76,210.53v-4.48h4.6v4.48h-4.6ZM102.36,210.53v4.53h-4.6v-4.53h4.6ZM102.36,174.03v-4.6h4.6v4.6h-4.6ZM102.36,183.11v-4.6h4.6v4.6h-4.6ZM102.36,201.45v-4.57h4.6v4.57h-4.6ZM102.36,210.53v-4.48h4.6v4.48h-4.6ZM106.95,210.53v4.53h-4.6v-4.53h4.6ZM106.95,174.03v-4.6h4.57v4.6h-4.57ZM106.95,196.88v-4.6h4.57v4.6h-4.57ZM106.95,201.45v-4.57h4.57v4.57h-4.57ZM106.95,210.53v-4.48h4.57v4.48h-4.57ZM111.53,210.53v4.53h-4.57v-4.53h4.57ZM111.53,174.03v-4.6h4.6v4.6h-4.6ZM111.53,178.51v-4.48h4.6v4.48h-4.6ZM111.53,192.28v-4.57h4.6v4.57h-4.6ZM111.53,196.88v-4.6h4.6v4.6h-4.6ZM111.53,201.45v-4.57h4.6v4.57h-4.6ZM111.53,210.53v-4.48h4.6v4.48h-4.6ZM116.12,210.53v4.53h-4.6v-4.53h4.6ZM116.12,178.51v-4.48h4.57v4.48h-4.57ZM116.12,183.11v-4.6h4.57v4.6h-4.57ZM116.12,187.71v-4.6h4.57v4.6h-4.57ZM116.12,192.28v-4.57h4.57v4.57h-4.57ZM116.12,196.88v-4.6h4.57v4.6h-4.57ZM116.12,201.45v-4.57h4.57v4.57h-4.57ZM116.12,206.05v-4.6h4.57v4.6h-4.57ZM116.12,210.53v-4.48h4.57v4.48h-4.57ZM120.7,210.53v4.53h-4.57v-4.53h4.57ZM120.7,183.11v-4.6h4.51v4.6h-4.51ZM120.7,187.71v-4.6h4.51v4.6h-4.51ZM120.7,192.28v-4.57h4.51v4.57h-4.51ZM120.7,196.88v-4.6h4.51v4.6h-4.51ZM120.7,206.05v-4.6h4.51v4.6h-4.51ZM120.7,210.53v-4.48h4.51v4.48h-4.51ZM125.2,210.53v4.53h-4.51v-4.53h4.51Z"/>
    <path class="cls-1" d="M120.7,174.03v-4.6h4.6v4.6h-4.6ZM120.7,178.51v-4.48h4.6v4.48h-4.6ZM120.7,183.11v-4.6h4.6v4.6h-4.6ZM120.7,187.71v-4.6h4.6v4.6h-4.6ZM120.7,192.28v-4.57h4.6v4.57h-4.6ZM120.7,196.88v-4.6h4.6v4.6h-4.6ZM120.7,201.45v-4.57h4.6v4.57h-4.6ZM120.7,206.05v-4.6h4.6v4.6h-4.6ZM120.7,210.53v-4.48h4.6v4.48h-4.6ZM125.29,174.03v-4.6h4.57v4.6h-4.57ZM125.29,210.53v-4.48h4.57v4.48h-4.57ZM129.87,210.53v4.53h-4.57v-4.53h4.57ZM129.87,174.03v-4.6h4.6v4.6h-4.6ZM129.87,210.53v-4.48h4.6v4.48h-4.6ZM134.47,210.53v4.53h-4.6v-4.53h4.6ZM134.47,174.03v-4.6h4.48v4.6h-4.48ZM134.47,178.51v-4.48h4.48v4.48h-4.48ZM134.47,183.11v-4.6h4.48v4.6h-4.48ZM134.47,187.71v-4.6h4.48v4.6h-4.48ZM134.47,192.28v-4.57h4.48v4.57h-4.48ZM134.47,196.88v-4.6h4.48v4.6h-4.48ZM134.47,201.45v-4.57h4.48v4.57h-4.48ZM134.47,210.53v-4.48h4.48v4.48h-4.48ZM138.95,210.53v4.53h-4.48v-4.53h4.48ZM138.95,178.51v-4.48h4.6v4.48h-4.6ZM138.95,183.11v-4.6h4.6v4.6h-4.6ZM138.95,187.71v-4.6h4.6v4.6h-4.6ZM138.95,192.28v-4.57h4.6v4.57h-4.6ZM138.95,196.88v-4.6h4.6v4.6h-4.6ZM138.95,201.45v-4.57h4.6v4.57h-4.6ZM138.95,210.53v-4.48h4.6v4.48h-4.6ZM143.54,210.53v4.53h-4.6v-4.53h4.6ZM143.54,201.45v-4.57h4.6v4.57h-4.6ZM143.54,210.53v-4.48h4.6v4.48h-4.6ZM148.14,210.53v4.53h-4.6v-4.53h4.6ZM148.14,201.45v-4.57h4.57v4.57h-4.57ZM148.14,210.53v-4.48h4.57v4.48h-4.57ZM152.71,210.53v4.53h-4.57v-4.53h4.57ZM152.71,201.45v-4.57h4.6v4.57h-4.6ZM152.71,206.05v-4.6h4.6v4.6h-4.6ZM152.71,210.53v-4.48h4.6v4.48h-4.6ZM157.31,210.53v4.53h-4.6v-4.53h4.6ZM157.31,206.05v-4.6h4.57v4.6h-4.57ZM157.31,210.53v-4.48h4.57v4.48h-4.57ZM161.88,210.53v4.53h-4.57v-4.53h4.57Z"/>
    <path class="cls-1" d="M157.31,178.51v-4.48h4.6v4.48h-4.6ZM157.31,183.11v-4.6h4.6v4.6h-4.6ZM157.31,187.71v-4.6h4.6v4.6h-4.6ZM157.31,192.28v-4.57h4.6v4.57h-4.6ZM157.31,196.88v-4.6h4.6v4.6h-4.6ZM157.31,201.45v-4.57h4.6v4.57h-4.6ZM157.31,206.05v-4.6h4.6v4.6h-4.6ZM157.31,210.53v-4.48h4.6v4.48h-4.6ZM161.91,174.03v-4.6h4.57v4.6h-4.57ZM161.91,178.51v-4.48h4.57v4.48h-4.57ZM161.91,210.53v-4.48h4.57v4.48h-4.57ZM166.48,210.53v4.53h-4.57v-4.53h4.57ZM166.48,174.03v-4.6h4.6v4.6h-4.6ZM166.48,210.53v-4.48h4.6v4.48h-4.6ZM171.08,210.53v4.53h-4.6v-4.53h4.6ZM171.08,174.03v-4.6h4.48v4.6h-4.48ZM171.08,183.11v-4.6h4.48v4.6h-4.48ZM171.08,187.71v-4.6h4.48v4.6h-4.48ZM171.08,192.28v-4.57h4.48v4.57h-4.48ZM171.08,201.45v-4.57h4.48v4.57h-4.48ZM171.08,206.05v-4.6h4.48v4.6h-4.48ZM171.08,210.53v-4.48h4.48v4.48h-4.48ZM175.56,210.53v4.53h-4.48v-4.53h4.48ZM175.56,174.03v-4.6h4.6v4.6h-4.6ZM175.56,183.11v-4.6h4.6v4.6h-4.6ZM175.56,187.71v-4.6h4.6v4.6h-4.6ZM175.56,192.28v-4.57h4.6v4.57h-4.6ZM175.56,201.45v-4.57h4.6v4.57h-4.6ZM175.56,206.05v-4.6h4.6v4.6h-4.6ZM175.56,210.53v-4.48h4.6v4.48h-4.6ZM180.16,210.53v4.53h-4.6v-4.53h4.6ZM180.16,174.03v-4.6h4.6v4.6h-4.6ZM180.16,183.11v-4.6h4.6v4.6h-4.6ZM180.16,187.71v-4.6h4.6v4.6h-4.6ZM180.16,192.28v-4.57h4.6v4.57h-4.6ZM180.16,201.45v-4.57h4.6v4.57h-4.6ZM180.16,206.05v-4.6h4.6v4.6h-4.6ZM180.16,210.53v-4.48h4.6v4.48h-4.6ZM184.75,174.03v-4.6h4.57v4.6h-4.57ZM184.75,210.53v-4.48h4.57v4.48h-4.57ZM189.33,210.53v4.53h-4.57v-4.53h4.57ZM189.33,174.03v-4.6h4.6v4.6h-4.6ZM189.33,178.51v-4.48h4.6v4.48h-4.6ZM189.33,210.53v-4.48h4.6v4.48h-4.6ZM193.92,210.53v4.53h-4.6v-4.53h4.6ZM193.92,178.51v-4.48h4.57v4.48h-4.57ZM193.92,183.11v-4.6h4.57v4.6h-4.57ZM193.92,187.71v-4.6h4.57v4.6h-4.57ZM193.92,192.28v-4.57h4.57v4.57h-4.57ZM193.92,196.88v-4.6h4.57v4.6h-4.57ZM193.92,201.45v-4.57h4.57v4.57h-4.57ZM193.92,206.05v-4.6h4.57v4.6h-4.57ZM193.92,210.53v-4.48h4.57v4.48h-4.57ZM198.5,210.53v4.53h-4.57v-4.53h4.57ZM198.5,183.11v-4.6h4.51v4.6h-4.51ZM198.5,187.71v-4.6h4.51v4.6h-4.51ZM198.5,192.28v-4.57h4.51v4.57h-4.51ZM198.5,196.88v-4.6h4.51v4.6h-4.51ZM198.5,201.45v-4.57h4.51v4.57h-4.51ZM198.5,206.05v-4.6h4.51v4.6h-4.51ZM198.5,210.53v-4.48h4.51v4.48h-4.51ZM203,210.53v4.53h-4.51v-4.53h4.51Z"/>
    <path class="cls-1" d="M198.5,174.03v-4.6h4.6v4.6h-4.6ZM198.5,178.51v-4.48h4.6v4.48h-4.6ZM198.5,183.11v-4.6h4.6v4.6h-4.6ZM198.5,187.71v-4.6h4.6v4.6h-4.6ZM198.5,192.28v-4.57h4.6v4.57h-4.6ZM198.5,196.88v-4.6h4.6v4.6h-4.6ZM198.5,201.45v-4.57h4.6v4.57h-4.6ZM198.5,206.05v-4.6h4.6v4.6h-4.6ZM198.5,210.53v-4.48h4.6v4.48h-4.6ZM203.09,174.03v-4.6h4.57v4.6h-4.57ZM203.09,210.53v-4.48h4.57v4.48h-4.57ZM207.67,210.53v4.53h-4.57v-4.53h4.57ZM207.67,174.03v-4.6h4.6v4.6h-4.6ZM207.67,210.53v-4.48h4.6v4.48h-4.6ZM212.26,210.53v4.53h-4.6v-4.53h4.6ZM212.26,174.03v-4.6h4.48v4.6h-4.48ZM212.26,178.51v-4.48h4.48v4.48h-4.48ZM212.26,192.28v-4.57h4.48v4.57h-4.48ZM212.26,196.88v-4.6h4.48v4.6h-4.48ZM212.26,201.45v-4.57h4.48v4.57h-4.48ZM212.26,206.05v-4.6h4.48v4.6h-4.48ZM212.26,210.53v-4.48h4.48v4.48h-4.48ZM216.74,210.53v4.53h-4.48v-4.53h4.48ZM216.74,178.51v-4.48h4.6v4.48h-4.6ZM216.74,183.11v-4.6h4.6v4.6h-4.6ZM216.74,196.88v-4.6h4.6v4.6h-4.6ZM216.74,201.45v-4.57h4.6v4.57h-4.6ZM216.74,206.05v-4.6h4.6v4.6h-4.6ZM216.74,210.53v-4.48h4.6v4.48h-4.6ZM221.34,210.53v4.53h-4.6v-4.53h4.6ZM221.34,174.03v-4.6h4.6v4.6h-4.6ZM221.34,178.51v-4.48h4.6v4.48h-4.6ZM221.34,183.11v-4.6h4.6v4.6h-4.6ZM221.34,187.71v-4.6h4.6v4.6h-4.6ZM221.34,201.45v-4.57h4.6v4.57h-4.6ZM221.34,206.05v-4.6h4.6v4.6h-4.6ZM221.34,210.53v-4.48h4.6v4.48h-4.6ZM225.94,174.03v-4.6h4.57v4.6h-4.57ZM225.94,210.53v-4.48h4.57v4.48h-4.57ZM230.51,210.53v4.53h-4.57v-4.53h4.57ZM230.51,174.03v-4.6h4.6v4.6h-4.6ZM230.51,210.53v-4.48h4.6v4.48h-4.6ZM235.11,210.53v4.53h-4.6v-4.53h4.6ZM235.11,174.03v-4.6h4.57v4.6h-4.57ZM235.11,178.51v-4.48h4.57v4.48h-4.57ZM235.11,183.11v-4.6h4.57v4.6h-4.57ZM235.11,187.71v-4.6h4.57v4.6h-4.57ZM235.11,192.28v-4.57h4.57v4.57h-4.57ZM235.11,196.88v-4.6h4.57v4.6h-4.57ZM235.11,201.45v-4.57h4.57v4.57h-4.57ZM235.11,206.05v-4.6h4.57v4.6h-4.57ZM235.11,210.53v-4.48h4.57v4.48h-4.57ZM239.68,210.53v4.53h-4.57v-4.53h4.57ZM239.68,178.51v-4.48h4.51v4.48h-4.51ZM239.68,183.11v-4.6h4.51v4.6h-4.51ZM239.68,187.71v-4.6h4.51v4.6h-4.51ZM239.68,192.28v-4.57h4.51v4.57h-4.51ZM239.68,196.88v-4.6h4.51v4.6h-4.51ZM239.68,201.45v-4.57h4.51v4.57h-4.51ZM239.68,206.05v-4.6h4.51v4.6h-4.51ZM239.68,210.53v-4.48h4.51v4.48h-4.51ZM244.19,210.53v4.53h-4.51v-4.53h4.51Z"/>
  </g>
  <g>
    <g>
      <rect class="cls-3" x="34.76" y="156.7" width="90.25" height="3.22"/>
      <rect class="cls-3" x="152.94" y="156.7" width="90.25" height="3.22"/>
    </g>
    <g>
      <path class="cls-3" d="M87.91,40.22c-.16,1.64,3.48,5.25,2.65,6.4-22.38,11.68-38.96,33.34-45.89,57.52-.55,1.93-2.27,11.3-2.68,11.83-.85,1.13-5.18.27-6.73.53,3.51-31.74,24.28-61.84,52.64-76.28Z"/>
      <path class="cls-3" d="M238.87,116.5c-1.55-.26-5.87.6-6.73-.53-.4-.53-2.12-9.9-2.68-11.83-6.6-23.02-22.15-44.28-43.22-55.89-.51-.72,2.43-5.33,3.19-6.18,26.72,14.79,46.05,43.93,49.44,74.43Z"/>
      <path class="cls-3" d="M179.78,36.47l-3.48,6.37c-23.8-11.08-51.36-11-75.67-1.5l-3.57-5.94c26.45-11.16,56.55-10.53,82.72,1.08Z"/>
    </g>
  </g>
  <rect class="cls-3" x="232.52" y="120.79" width="7.13" height="5.28"/>
  <rect class="cls-3" x="34.96" y="120.42" width="7.13" height="5.28"/>
</svg>