<?xml version="1.0" encoding="UTF-8"?>
<svg id="Calque_2" data-name="Calque 2" xmlns="http://www.w3.org/2000/svg" viewBox="0 0 278.94 242.44">
  <defs>
    <style>
      .cls-1 {
        fill: #9c92c7;
      }

      .cls-2 {
        fill: #fff;
      }

      .cls-3 {
        fill: #5ac3e4;
      }
    </style>
  </defs>
  <g>
    <g>
      <path class="cls-2" d="M193.29,91.26v-11.85h-36.14v-11.85h-12.05v11.85h-12.05v-11.85h-12.05v11.85h-36.14v11.85h-12.05v59.23h36.14v-11.85h12.05v-11.85h36.14v11.85h12.05v11.85h36.14v-59.23h-12.05ZM121.01,114.95h-12.05v11.85h-12.05v-11.85h-12.05v-11.85h12.05v-11.85h12.05v11.85h12.05v11.85ZM193.29,114.95h-12.05v11.85h-12.05v-11.85h-12.05v-11.85h12.05v-11.85h12.05v11.85h12.05v11.85Z"/>
      <rect class="cls-2" x="169.2" y="103.1" width="12.05" height="11.85"/>
    </g>
    <rect class="cls-2" x="157.15" y="55.72" width="12.05" height="11.85"/>
    <rect class="cls-2" x="108.97" y="55.72" width="12.05" height="11.85"/>
  </g>
  <g>
    <path class="cls-1" d="M38.23,188.28v-4.57h4.6v4.57h-4.6ZM38.23,192.88v-4.6h4.6v4.6h-4.6ZM38.23,197.45v-4.57h4.6v4.57h-4.6ZM38.23,202.05v-4.6h4.6v4.6h-4.6ZM42.82,183.71v-4.6h4.57v4.6h-4.57ZM42.82,188.28v-4.57h4.57v4.57h-4.57ZM42.82,202.05v-4.6h4.57v4.6h-4.57ZM42.82,206.53v-4.48h4.57v4.48h-4.57ZM47.4,179.11v-4.6h4.6v4.6h-4.6ZM47.4,183.71v-4.6h4.6v4.6h-4.6ZM47.4,202.05v-4.6h4.6v4.6h-4.6ZM47.4,206.53v-4.48h4.6v4.48h-4.6ZM51.99,174.51v-4.48h4.48v4.48h-4.48ZM51.99,179.11v-4.6h4.48v4.6h-4.48ZM51.99,192.88v-4.6h4.48v4.6h-4.48ZM51.99,202.05v-4.6h4.48v4.6h-4.48ZM51.99,206.53v-4.48h4.48v4.48h-4.48ZM56.48,170.03v-4.6h4.6v4.6h-4.6ZM56.48,174.51v-4.48h4.6v4.48h-4.6ZM56.48,188.28v-4.57h4.6v4.57h-4.6ZM56.48,192.88v-4.6h4.6v4.6h-4.6ZM56.48,202.05v-4.6h4.6v4.6h-4.6ZM56.48,206.53v-4.48h4.6v4.48h-4.6ZM61.07,170.03v-4.6h4.6v4.6h-4.6ZM61.07,206.53v-4.48h4.6v4.48h-4.6ZM65.67,206.53v4.53h-4.6v-4.53h4.6ZM65.67,170.03v-4.6h4.57v4.6h-4.57ZM65.67,206.53v-4.48h4.57v4.48h-4.57ZM70.24,206.53v4.53h-4.57v-4.53h4.57ZM70.24,170.03v-4.6h4.6v4.6h-4.6ZM70.24,174.51v-4.48h4.6v4.48h-4.6ZM70.24,179.11v-4.6h4.6v4.6h-4.6ZM70.24,183.71v-4.6h4.6v4.6h-4.6ZM70.24,188.28v-4.57h4.6v4.57h-4.6ZM70.24,192.88v-4.6h4.6v4.6h-4.6ZM70.24,202.05v-4.6h4.6v4.6h-4.6ZM70.24,206.53v-4.48h4.6v4.48h-4.6ZM74.84,206.53v4.53h-4.6v-4.53h4.6ZM74.84,174.51v-4.48h4.57v4.48h-4.57ZM74.84,179.11v-4.6h4.57v4.6h-4.57ZM74.84,183.71v-4.6h4.57v4.6h-4.57ZM74.84,188.28v-4.57h4.57v4.57h-4.57ZM74.84,192.88v-4.6h4.57v4.6h-4.57ZM74.84,197.45v-4.57h4.57v4.57h-4.57ZM74.84,202.05v-4.6h4.57v4.6h-4.57ZM74.84,206.53v-4.48h4.57v4.48h-4.57ZM79.41,206.53v4.53h-4.57v-4.53h4.57ZM79.41,197.45v-4.57h4.51v4.57h-4.51ZM79.41,202.05v-4.6h4.51v4.6h-4.51ZM79.41,206.53v-4.48h4.51v4.48h-4.51Z"/>
    <path class="cls-1" d="M79.41,174.51v-4.48h4.6v4.48h-4.6ZM79.41,179.11v-4.6h4.6v4.6h-4.6ZM79.41,183.71v-4.6h4.6v4.6h-4.6ZM79.41,188.28v-4.57h4.6v4.57h-4.6ZM79.41,197.45v-4.57h4.6v4.57h-4.6ZM79.41,202.05v-4.6h4.6v4.6h-4.6ZM79.41,206.53v-4.48h4.6v4.48h-4.6ZM84.01,170.03v-4.6h4.57v4.6h-4.57ZM84.01,174.51v-4.48h4.57v4.48h-4.57ZM84.01,188.28v-4.57h4.57v4.57h-4.57ZM84.01,192.88v-4.6h4.57v4.6h-4.57ZM84.01,197.45v-4.57h4.57v4.57h-4.57ZM84.01,206.53v-4.48h4.57v4.48h-4.57ZM88.58,206.53v4.53h-4.57v-4.53h4.57ZM88.58,170.03v-4.6h4.6v4.6h-4.6ZM88.58,188.28v-4.57h4.6v4.57h-4.6ZM88.58,192.88v-4.6h4.6v4.6h-4.6ZM88.58,206.53v-4.48h4.6v4.48h-4.6ZM93.18,206.53v4.53h-4.6v-4.53h4.6ZM93.18,170.03v-4.6h4.48v4.6h-4.48ZM93.18,179.11v-4.6h4.48v4.6h-4.48ZM93.18,183.71v-4.6h4.48v4.6h-4.48ZM93.18,188.28v-4.57h4.48v4.57h-4.48ZM93.18,206.53v-4.48h4.48v4.48h-4.48ZM97.66,206.53v4.53h-4.48v-4.53h4.48ZM97.66,170.03v-4.6h4.6v4.6h-4.6ZM97.66,179.11v-4.6h4.6v4.6h-4.6ZM97.66,183.71v-4.6h4.6v4.6h-4.6ZM97.66,206.53v-4.48h4.6v4.48h-4.6ZM102.26,206.53v4.53h-4.6v-4.53h4.6ZM102.26,170.03v-4.6h4.6v4.6h-4.6ZM102.26,179.11v-4.6h4.6v4.6h-4.6ZM102.26,197.45v-4.57h4.6v4.57h-4.6ZM102.26,206.53v-4.48h4.6v4.48h-4.6ZM106.85,206.53v4.53h-4.6v-4.53h4.6ZM106.85,170.03v-4.6h4.57v4.6h-4.57ZM106.85,192.88v-4.6h4.57v4.6h-4.57ZM106.85,197.45v-4.57h4.57v4.57h-4.57ZM106.85,206.53v-4.48h4.57v4.48h-4.57ZM111.43,206.53v4.53h-4.57v-4.53h4.57ZM111.43,170.03v-4.6h4.6v4.6h-4.6ZM111.43,174.51v-4.48h4.6v4.48h-4.6ZM111.43,188.28v-4.57h4.6v4.57h-4.6ZM111.43,192.88v-4.6h4.6v4.6h-4.6ZM111.43,197.45v-4.57h4.6v4.57h-4.6ZM111.43,206.53v-4.48h4.6v4.48h-4.6ZM116.03,206.53v4.53h-4.6v-4.53h4.6ZM116.03,174.51v-4.48h4.57v4.48h-4.57ZM116.03,179.11v-4.6h4.57v4.6h-4.57ZM116.03,183.71v-4.6h4.57v4.6h-4.57ZM116.03,188.28v-4.57h4.57v4.57h-4.57ZM116.03,192.88v-4.6h4.57v4.6h-4.57ZM116.03,197.45v-4.57h4.57v4.57h-4.57ZM116.03,202.05v-4.6h4.57v4.6h-4.57ZM116.03,206.53v-4.48h4.57v4.48h-4.57ZM120.6,206.53v4.53h-4.57v-4.53h4.57ZM120.6,179.11v-4.6h4.51v4.6h-4.51ZM120.6,183.71v-4.6h4.51v4.6h-4.51ZM120.6,188.28v-4.57h4.51v4.57h-4.51ZM120.6,192.88v-4.6h4.51v4.6h-4.51ZM120.6,202.05v-4.6h4.51v4.6h-4.51ZM120.6,206.53v-4.48h4.51v4.48h-4.51ZM125.1,206.53v4.53h-4.51v-4.53h4.51Z"/>
    <path class="cls-1" d="M120.6,170.03v-4.6h4.6v4.6h-4.6ZM120.6,174.51v-4.48h4.6v4.48h-4.6ZM120.6,179.11v-4.6h4.6v4.6h-4.6ZM120.6,183.71v-4.6h4.6v4.6h-4.6ZM120.6,188.28v-4.57h4.6v4.57h-4.6ZM120.6,192.88v-4.6h4.6v4.6h-4.6ZM120.6,197.45v-4.57h4.6v4.57h-4.6ZM120.6,202.05v-4.6h4.6v4.6h-4.6ZM120.6,206.53v-4.48h4.6v4.48h-4.6ZM125.2,170.03v-4.6h4.57v4.6h-4.57ZM125.2,206.53v-4.48h4.57v4.48h-4.57ZM129.77,206.53v4.53h-4.57v-4.53h4.57ZM129.77,170.03v-4.6h4.6v4.6h-4.6ZM129.77,206.53v-4.48h4.6v4.48h-4.6ZM134.37,206.53v4.53h-4.6v-4.53h4.6ZM134.37,170.03v-4.6h4.48v4.6h-4.48ZM134.37,174.51v-4.48h4.48v4.48h-4.48ZM134.37,179.11v-4.6h4.48v4.6h-4.48ZM134.37,183.71v-4.6h4.48v4.6h-4.48ZM134.37,188.28v-4.57h4.48v4.57h-4.48ZM134.37,192.88v-4.6h4.48v4.6h-4.48ZM134.37,197.45v-4.57h4.48v4.57h-4.48ZM134.37,206.53v-4.48h4.48v4.48h-4.48ZM138.85,206.53v4.53h-4.48v-4.53h4.48ZM138.85,174.51v-4.48h4.6v4.48h-4.6ZM138.85,179.11v-4.6h4.6v4.6h-4.6ZM138.85,183.71v-4.6h4.6v4.6h-4.6ZM138.85,188.28v-4.57h4.6v4.57h-4.6ZM138.85,192.88v-4.6h4.6v4.6h-4.6ZM138.85,197.45v-4.57h4.6v4.57h-4.6ZM138.85,206.53v-4.48h4.6v4.48h-4.6ZM143.44,206.53v4.53h-4.6v-4.53h4.6ZM143.44,197.45v-4.57h4.6v4.57h-4.6ZM143.44,206.53v-4.48h4.6v4.48h-4.6ZM148.04,206.53v4.53h-4.6v-4.53h4.6ZM148.04,197.45v-4.57h4.57v4.57h-4.57ZM148.04,206.53v-4.48h4.57v4.48h-4.57ZM152.61,206.53v4.53h-4.57v-4.53h4.57ZM152.61,197.45v-4.57h4.6v4.57h-4.6ZM152.61,202.05v-4.6h4.6v4.6h-4.6ZM152.61,206.53v-4.48h4.6v4.48h-4.6ZM157.21,206.53v4.53h-4.6v-4.53h4.6ZM157.21,202.05v-4.6h4.57v4.6h-4.57ZM157.21,206.53v-4.48h4.57v4.48h-4.57ZM161.78,206.53v4.53h-4.57v-4.53h4.57Z"/>
    <path class="cls-1" d="M157.21,174.51v-4.48h4.6v4.48h-4.6ZM157.21,179.11v-4.6h4.6v4.6h-4.6ZM157.21,183.71v-4.6h4.6v4.6h-4.6ZM157.21,188.28v-4.57h4.6v4.57h-4.6ZM157.21,192.88v-4.6h4.6v4.6h-4.6ZM157.21,197.45v-4.57h4.6v4.57h-4.6ZM157.21,202.05v-4.6h4.6v4.6h-4.6ZM157.21,206.53v-4.48h4.6v4.48h-4.6ZM161.81,170.03v-4.6h4.57v4.6h-4.57ZM161.81,174.51v-4.48h4.57v4.48h-4.57ZM161.81,206.53v-4.48h4.57v4.48h-4.57ZM166.38,206.53v4.53h-4.57v-4.53h4.57ZM166.38,170.03v-4.6h4.6v4.6h-4.6ZM166.38,206.53v-4.48h4.6v4.48h-4.6ZM170.98,206.53v4.53h-4.6v-4.53h4.6ZM170.98,170.03v-4.6h4.48v4.6h-4.48ZM170.98,179.11v-4.6h4.48v4.6h-4.48ZM170.98,183.71v-4.6h4.48v4.6h-4.48ZM170.98,188.28v-4.57h4.48v4.57h-4.48ZM170.98,197.45v-4.57h4.48v4.57h-4.48ZM170.98,202.05v-4.6h4.48v4.6h-4.48ZM170.98,206.53v-4.48h4.48v4.48h-4.48ZM175.46,206.53v4.53h-4.48v-4.53h4.48ZM175.46,170.03v-4.6h4.6v4.6h-4.6ZM175.46,179.11v-4.6h4.6v4.6h-4.6ZM175.46,183.71v-4.6h4.6v4.6h-4.6ZM175.46,188.28v-4.57h4.6v4.57h-4.6ZM175.46,197.45v-4.57h4.6v4.57h-4.6ZM175.46,202.05v-4.6h4.6v4.6h-4.6ZM175.46,206.53v-4.48h4.6v4.48h-4.6ZM180.06,206.53v4.53h-4.6v-4.53h4.6ZM180.06,170.03v-4.6h4.6v4.6h-4.6ZM180.06,179.11v-4.6h4.6v4.6h-4.6ZM180.06,183.71v-4.6h4.6v4.6h-4.6ZM180.06,188.28v-4.57h4.6v4.57h-4.6ZM180.06,197.45v-4.57h4.6v4.57h-4.6ZM180.06,202.05v-4.6h4.6v4.6h-4.6ZM180.06,206.53v-4.48h4.6v4.48h-4.6ZM184.65,170.03v-4.6h4.57v4.6h-4.57ZM184.65,206.53v-4.48h4.57v4.48h-4.57ZM189.23,206.53v4.53h-4.57v-4.53h4.57ZM189.23,170.03v-4.6h4.6v4.6h-4.6ZM189.23,174.51v-4.48h4.6v4.48h-4.6ZM189.23,206.53v-4.48h4.6v4.48h-4.6ZM193.82,206.53v4.53h-4.6v-4.53h4.6ZM193.82,174.51v-4.48h4.57v4.48h-4.57ZM193.82,179.11v-4.6h4.57v4.6h-4.57ZM193.82,183.71v-4.6h4.57v4.6h-4.57ZM193.82,188.28v-4.57h4.57v4.57h-4.57ZM193.82,192.88v-4.6h4.57v4.6h-4.57ZM193.82,197.45v-4.57h4.57v4.57h-4.57ZM193.82,202.05v-4.6h4.57v4.6h-4.57ZM193.82,206.53v-4.48h4.57v4.48h-4.57ZM198.4,206.53v4.53h-4.57v-4.53h4.57ZM198.4,179.11v-4.6h4.51v4.6h-4.51ZM198.4,183.71v-4.6h4.51v4.6h-4.51ZM198.4,188.28v-4.57h4.51v4.57h-4.51ZM198.4,192.88v-4.6h4.51v4.6h-4.51ZM198.4,197.45v-4.57h4.51v4.57h-4.51ZM198.4,202.05v-4.6h4.51v4.6h-4.51ZM198.4,206.53v-4.48h4.51v4.48h-4.51ZM202.9,206.53v4.53h-4.51v-4.53h4.51Z"/>
    <path class="cls-1" d="M198.4,170.03v-4.6h4.6v4.6h-4.6ZM198.4,174.51v-4.48h4.6v4.48h-4.6ZM198.4,179.11v-4.6h4.6v4.6h-4.6ZM198.4,183.71v-4.6h4.6v4.6h-4.6ZM198.4,188.28v-4.57h4.6v4.57h-4.6ZM198.4,192.88v-4.6h4.6v4.6h-4.6ZM198.4,197.45v-4.57h4.6v4.57h-4.6ZM198.4,202.05v-4.6h4.6v4.6h-4.6ZM198.4,206.53v-4.48h4.6v4.48h-4.6ZM202.99,170.03v-4.6h4.57v4.6h-4.57ZM202.99,206.53v-4.48h4.57v4.48h-4.57ZM207.57,206.53v4.53h-4.57v-4.53h4.57ZM207.57,170.03v-4.6h4.6v4.6h-4.6ZM207.57,206.53v-4.48h4.6v4.48h-4.6ZM212.16,206.53v4.53h-4.6v-4.53h4.6ZM212.16,170.03v-4.6h4.48v4.6h-4.48ZM212.16,174.51v-4.48h4.48v4.48h-4.48ZM212.16,188.28v-4.57h4.48v4.57h-4.48ZM212.16,192.88v-4.6h4.48v4.6h-4.48ZM212.16,197.45v-4.57h4.48v4.57h-4.48ZM212.16,202.05v-4.6h4.48v4.6h-4.48ZM212.16,206.53v-4.48h4.48v4.48h-4.48ZM216.65,206.53v4.53h-4.48v-4.53h4.48ZM216.65,174.51v-4.48h4.6v4.48h-4.6ZM216.65,179.11v-4.6h4.6v4.6h-4.6ZM216.65,192.88v-4.6h4.6v4.6h-4.6ZM216.65,197.45v-4.57h4.6v4.57h-4.6ZM216.65,202.05v-4.6h4.6v4.6h-4.6ZM216.65,206.53v-4.48h4.6v4.48h-4.6ZM221.24,206.53v4.53h-4.6v-4.53h4.6ZM221.24,170.03v-4.6h4.6v4.6h-4.6ZM221.24,174.51v-4.48h4.6v4.48h-4.6ZM221.24,179.11v-4.6h4.6v4.6h-4.6ZM221.24,183.71v-4.6h4.6v4.6h-4.6ZM221.24,197.45v-4.57h4.6v4.57h-4.6ZM221.24,202.05v-4.6h4.6v4.6h-4.6ZM221.24,206.53v-4.48h4.6v4.48h-4.6ZM225.84,170.03v-4.6h4.57v4.6h-4.57ZM225.84,206.53v-4.48h4.57v4.48h-4.57ZM230.41,206.53v4.53h-4.57v-4.53h4.57ZM230.41,170.03v-4.6h4.6v4.6h-4.6ZM230.41,206.53v-4.48h4.6v4.48h-4.6ZM235.01,206.53v4.53h-4.6v-4.53h4.6ZM235.01,170.03v-4.6h4.57v4.6h-4.57ZM235.01,174.51v-4.48h4.57v4.48h-4.57ZM235.01,179.11v-4.6h4.57v4.6h-4.57ZM235.01,183.71v-4.6h4.57v4.6h-4.57ZM235.01,188.28v-4.57h4.57v4.57h-4.57ZM235.01,192.88v-4.6h4.57v4.6h-4.57ZM235.01,197.45v-4.57h4.57v4.57h-4.57ZM235.01,202.05v-4.6h4.57v4.6h-4.57ZM235.01,206.53v-4.48h4.57v4.48h-4.57ZM239.58,206.53v4.53h-4.57v-4.53h4.57ZM239.58,174.51v-4.48h4.51v4.48h-4.51ZM239.58,179.11v-4.6h4.51v4.6h-4.51ZM239.58,183.71v-4.6h4.51v4.6h-4.51ZM239.58,188.28v-4.57h4.51v4.57h-4.51ZM239.58,192.88v-4.6h4.51v4.6h-4.51ZM239.58,197.45v-4.57h4.51v4.57h-4.51ZM239.58,202.05v-4.6h4.51v4.6h-4.51ZM239.58,206.53v-4.48h4.51v4.48h-4.51ZM244.09,206.53v4.53h-4.51v-4.53h4.51Z"/>
  </g>
  <g>
    <path class="cls-3" d="M87.81,44.22c-.16,1.64,3.48,5.25,2.65,6.4-22.38,11.68-38.96,33.34-45.89,57.52-.55,1.93-2.27,11.3-2.68,11.83-.85,1.13-5.18.27-6.73.53,3.51-31.74,24.28-61.84,52.64-76.28Z"/>
    <path class="cls-3" d="M238.77,120.5c-1.55-.26-5.87.6-6.73-.53-.4-.53-2.12-9.9-2.68-11.83-6.6-23.02-22.15-44.28-43.22-55.89-.51-.72,2.43-5.33,3.19-6.18,26.72,14.79,46.05,43.93,49.44,74.43Z"/>
    <path class="cls-3" d="M179.68,40.47l-3.48,6.37c-23.8-11.08-51.36-11-75.67-1.5l-3.57-5.94c26.45-11.16,56.55-10.53,82.72,1.08Z"/>
  </g>
  <rect class="cls-3" x="232.42" y="124.79" width="7.13" height="5.28"/>
  <rect class="cls-3" x="34.86" y="124.42" width="7.13" height="5.28"/>
</svg>